<?xml version="1.0" encoding="UTF-8"?>
<svg version="1.1" xmlns="http://www.w3.org/2000/svg" width="508" height="136">
<path d="M0 0 C167.64 0 335.28 0 508 0 C508 44.88 508 89.76 508 136 C340.36 136 172.72 136 0 136 C0 91.12 0 46.24 0 0 Z " fill="#FEFEFE" transform="translate(0,0)"/>
<path d="M0 0 C2.24523084 -0.00217866 4.48996406 -0.02031553 6.73510742 -0.03930664 C8.16804845 -0.04224228 9.60099182 -0.04422593 11.03393555 -0.04516602 C12.33564697 -0.0492749 13.6373584 -0.05338379 14.97851562 -0.05761719 C19.23574617 0.24012263 22.10569648 0.73867149 25.06784058 3.92178345 C26.76952992 6.70475261 26.82405841 8.38959071 26.82080078 11.63720703 C26.82768417 12.72901779 26.83456757 13.82082855 26.84165955 14.94572449 C26.83550125 16.1217775 26.82934296 17.29783051 26.82299805 18.50952148 C26.8403872 21.00756968 26.8579715 23.50561653 26.87573242 26.00366211 C26.88578678 29.9358985 26.88940637 33.86804428 26.88769531 37.80029297 C26.89127832 41.59947547 26.91867869 45.39796318 26.94799805 49.19702148 C26.93981552 50.36295334 26.931633 51.52888519 26.92320251 52.73014832 C26.99503705 60.65815083 28.12115736 67.12323962 33.2487793 73.37670898 C40.43531956 78.42166025 48.01478815 77.97879342 56.4519043 77.18530273 C58.28224485 75.35496218 57.58233227 72.45318282 57.5847168 69.99780273 C57.58600586 68.74225586 57.58729492 67.48670898 57.58862305 66.19311523 C57.58652832 65.53601563 57.58443359 64.87891602 57.58227539 64.2019043 C57.57692663 62.19368939 57.58222121 60.18569814 57.58862305 58.17749023 C57.58733398 56.92194336 57.58604492 55.66639648 57.5847168 54.37280273 C57.5830249 52.63063477 57.5830249 52.63063477 57.58129883 50.85327148 C57.75527904 48.2646699 57.75527904 48.2646699 56.4519043 47.18530273 C53.0855065 46.94807336 49.72637669 46.78921606 46.35424805 46.66772461 C42.58443998 46.48575755 40.65826138 46.32287412 37.4519043 44.18530273 C37.2019043 41.62280273 37.2019043 41.62280273 37.4519043 39.18530273 C39.80958087 36.82762616 45.53938573 37.90430192 48.7019043 37.87280273 C50.13469727 37.82929687 50.13469727 37.82929687 51.59643555 37.78491211 C58.68952581 37.72078821 58.68952581 37.72078821 62.5612793 40.07983398 C65.95935826 43.86405828 65.64294254 47.21000383 65.69018555 52.07983398 C65.69825729 52.86420334 65.70632904 53.64857269 65.71464539 54.45671082 C65.72848491 56.118579 65.73920766 57.7804756 65.74707031 59.44238281 C65.76426783 61.97768409 65.80815085 64.51167588 65.85229492 67.04663086 C65.86242345 68.66185565 65.87093905 70.27709153 65.87768555 71.89233398 C65.89519363 72.6477095 65.91270172 73.40308502 65.93074036 74.18135071 C65.91543968 77.9151104 65.58027438 79.98649503 63.53466797 83.15454102 C59.15464472 87.42520487 52.98384445 86.59524779 47.16748047 86.640625 C38.4370038 86.45415961 31.09556678 83.30915824 24.9519043 76.99780273 C19.02033163 68.71818097 17.86009902 59.70089827 17.87768555 49.77124023 C17.86352097 48.63498199 17.84935638 47.49872375 17.83476257 46.32803345 C17.79318843 42.73869058 17.77767034 39.14985154 17.7644043 35.56030273 C17.73535995 31.93528007 17.70091886 28.31038405 17.66191101 24.68545532 C17.63938749 22.43858606 17.62359018 20.19163762 17.61506653 17.94467163 C17.60803207 16.93917267 17.60099762 15.93367371 17.59375 14.89770508 C17.59027054 14.00932953 17.58679108 13.12095398 17.58320618 12.20565796 C17.67522181 10.18870011 17.67522181 10.18870011 16.4519043 9.18530273 C14.46433402 9.08547216 12.4732291 9.0544952 10.4831543 9.05249023 C8.66750977 9.05055664 8.66750977 9.05055664 6.81518555 9.04858398 C5.54030273 9.05245117 4.26541992 9.05631836 2.9519043 9.06030273 C1.67702148 9.05643555 0.40213867 9.05256836 -0.91137695 9.04858398 C-2.12180664 9.04987305 -3.33223633 9.05116211 -4.5793457 9.05249023 C-5.69889648 9.05361816 -6.81844727 9.05474609 -7.97192383 9.0559082 C-10.47951372 8.89313906 -10.47951372 8.89313906 -11.5480957 10.18530273 C-11.78469099 13.36619499 -11.94435185 16.53939711 -12.06567383 19.72631836 C-12.33481445 24.97202148 -12.33481445 24.97202148 -14.5480957 27.18530273 C-18.08380999 26.64958845 -18.08380999 26.64958845 -19.5480957 25.18530273 C-19.85402767 22.11163595 -19.82649754 19.02232353 -19.8605957 15.93530273 C-19.88959961 15.07549805 -19.91860352 14.21569336 -19.94848633 13.32983398 C-19.99089222 9.0957689 -19.93597457 6.80910792 -17.65356445 3.13842773 C-12.79021767 -1.37302568 -6.26942892 -0.00068287 0 0 Z " fill="#6373FF" transform="translate(86.548095703125,6.814697265625)"/>
<path d="M0 0 C0.80501953 0.00580078 1.61003906 0.01160156 2.43945312 0.01757812 C3.26767578 0.05431641 4.09589844 0.09105469 4.94921875 0.12890625 C5.76583984 0.13083984 6.58246094 0.13277344 7.42382812 0.13476562 C16.55309241 0.33117211 24.01364165 3.35136663 30.63671875 9.69140625 C34.63651708 14.91886546 36.73993012 19.41043261 36.82617188 26.04907227 C36.8428894 27.14353165 36.85960693 28.23799103 36.87683105 29.36561584 C36.89040649 30.54691574 36.90398193 31.72821564 36.91796875 32.9453125 C36.94558289 34.76300392 36.94558289 34.76300392 36.97375488 36.61741638 C37.05256851 41.81378204 37.12028146 47.01027925 37.18896484 52.20678711 C37.24059769 55.99469601 37.29787917 59.78249025 37.35546875 63.5703125 C37.36904419 64.75363663 37.38261963 65.93696075 37.39660645 67.15614319 C37.41332397 68.24745041 37.4300415 69.33875763 37.44726562 70.46313477 C37.4597937 71.42671402 37.47232178 72.39029327 37.48522949 73.3830719 C37.48870083 75.71843789 37.48870083 75.71843789 38.63671875 77.69140625 C48.20671875 77.69140625 57.77671875 77.69140625 67.63671875 77.69140625 C67.92591134 72.14198275 67.92591134 72.14198275 68.20483398 66.59204102 C68.52560764 60.80251736 68.52560764 60.80251736 69.63671875 59.69140625 C72.13671875 59.56640625 72.13671875 59.56640625 74.63671875 59.69140625 C76.94300466 61.99769216 75.96420426 67.34864501 76.01171875 70.44140625 C76.06779297 71.80265625 76.06779297 71.80265625 76.125 73.19140625 C76.13660156 74.073125 76.14820312 74.95484375 76.16015625 75.86328125 C76.18988525 77.07129395 76.18988525 77.07129395 76.22021484 78.30371094 C75.31641848 82.00209105 73.65107028 83.42508426 70.63671875 85.69140625 C67.70735639 86.1910722 65.3708182 86.39510866 62.44921875 86.35546875 C61.27903198 86.3626442 61.27903198 86.3626442 60.08520508 86.3699646 C58.44122289 86.37335633 56.7971726 86.36420456 55.15332031 86.34326172 C52.6436458 86.31648017 50.13844246 86.34302825 47.62890625 86.375 C46.02733393 86.37169577 44.42576437 86.36528924 42.82421875 86.35546875 C42.07825439 86.3655899 41.33229004 86.37571106 40.5637207 86.38613892 C36.99715544 86.30631861 34.73357712 85.7488782 31.65820312 83.92407227 C28.51488159 78.89741521 29.00787328 74.1140479 29.10546875 68.3046875 C29.10220581 67.09250046 29.09894287 65.88031342 29.09558105 64.63139343 C29.0824302 59.45289023 29.12702657 54.27524995 29.16650391 49.09692383 C29.18706903 45.31174479 29.17811763 41.52738934 29.16796875 37.7421875 C29.18758667 36.58455399 29.20720459 35.42692047 29.22741699 34.23420715 C29.20376966 26.78322425 28.10214212 20.81817772 23.63671875 14.69140625 C18.27254592 10.27205402 13.46798481 8.54964416 6.51171875 8.56640625 C5.43664062 8.56382813 4.3615625 8.56125 3.25390625 8.55859375 C0.71015479 8.3945165 0.71015479 8.3945165 -0.36328125 9.69140625 C-0.45111667 11.90995889 -0.47022734 14.13129121 -0.4609375 16.3515625 C-0.45881508 17.3482621 -0.45881508 17.3482621 -0.45664978 18.36509705 C-0.45103643 20.49474524 -0.43848179 22.62428964 -0.42578125 24.75390625 C-0.42076796 26.19465994 -0.41620476 27.63541528 -0.41210938 29.07617188 C-0.4010627 32.61461727 -0.38378917 36.15300164 -0.36328125 39.69140625 C0.84070313 39.74039063 2.0446875 39.789375 3.28515625 39.83984375 C4.86070073 39.91486968 6.43622041 39.99041758 8.01171875 40.06640625 C8.80578125 40.09734375 9.59984375 40.12828125 10.41796875 40.16015625 C16.41015625 40.46484375 16.41015625 40.46484375 18.63671875 42.69140625 C18.08116319 47.24696181 18.08116319 47.24696181 16.63671875 48.69140625 C13.70885947 48.81883332 10.81505736 48.87662561 7.88671875 48.87890625 C7.07460938 48.89115234 6.2625 48.90339844 5.42578125 48.91601562 C-2.72352217 48.93592435 -2.72352217 48.93592435 -6.36328125 46.69140625 C-9.54199194 42.55482083 -9.83062114 38.80520162 -9.83203125 33.7578125 C-9.83964478 33.00225571 -9.8472583 32.24669891 -9.85510254 31.46824646 C-9.86587267 29.87559298 -9.86876921 28.28286905 -9.86425781 26.69018555 C-9.8632854 24.26425501 -9.90493582 21.84149003 -9.94921875 19.41601562 C-9.95442652 17.8632878 -9.95711393 16.31054906 -9.95703125 14.7578125 C-9.97342651 14.03888321 -9.98982178 13.31995392 -10.00671387 12.57923889 C-9.9549672 8.77482288 -9.38487154 6.2141902 -7.09887695 3.23046875 C-3.55272474 -0.0609175 -3.55272474 -0.0609175 0 0 Z " fill="#6272FF" transform="translate(37.36328125,44.30859375)"/>
<path d="M0 0 C3.96 0 7.92 0 12 0 C15.68058749 7.8869732 18.95417837 15.84756679 22 24 C24.26506464 21.73493536 24.97267913 19.95362617 26.1640625 16.9921875 C26.56367188 16.00605469 26.96328125 15.01992188 27.375 14.00390625 C27.7875 12.97136719 28.2 11.93882813 28.625 10.875 C29.04523438 9.83472656 29.46546875 8.79445313 29.8984375 7.72265625 C30.93683347 5.15026623 31.96900531 2.57536533 33 0 C36.96 0 40.92 0 45 0 C45 14.52 45 29.04 45 44 C41.7 44 38.4 44 35 44 C34.505 33.605 34.505 33.605 34 23 C31.69 29.27 29.38 35.54 27 42 C24.36 42 21.72 42 19 42 C18.22563847 40.33496966 17.45571885 38.66787338 16.6875 37 C16.25824219 36.071875 15.82898438 35.14375 15.38671875 34.1875 C13.78875864 30.5144424 12.40645994 26.75055983 11 23 C10.67 29.93 10.34 36.86 10 44 C6.7 44 3.4 44 0 44 C0 29.48 0 14.96 0 0 Z " fill="#061170" transform="translate(224,48)"/>
<path d="M0 0 C3.795 -0.103125 7.59 -0.20625 11.5 -0.3125 C12.68013672 -0.35802002 13.86027344 -0.40354004 15.07617188 -0.45043945 C22.0368686 -0.54150191 26.66410622 0.38472871 32 5 C35.24744292 8.65337329 35.46208546 12.06244201 35.2890625 16.78125 C34.86580092 20.03006859 33.8397007 22.30615254 32 25 C29.890625 26.16015625 29.890625 26.16015625 28 27 C28.5053125 28.05960938 29.010625 29.11921875 29.53125 30.2109375 C30.18770131 31.59886314 30.84394033 32.98688919 31.5 34.375 C31.83386719 35.07367188 32.16773438 35.77234375 32.51171875 36.4921875 C35 41.7734375 35 41.7734375 35 44 C31.04 44 27.08 44 23 44 C22.63648438 43.07316406 22.27296875 42.14632812 21.8984375 41.19140625 C21.39570313 39.99386719 20.89296875 38.79632813 20.375 37.5625 C19.64410156 35.77005859 19.64410156 35.77005859 18.8984375 33.94140625 C18.27195313 32.97074219 17.64546875 32.00007813 17 31 C15.02 30.67 13.04 30.34 11 30 C11 34.62 11 39.24 11 44 C7.37 44 3.74 44 0 44 C0 29.48 0 14.96 0 0 Z " fill="#061170" transform="translate(177,48)"/>
<path d="M0 0 C3.795 -0.103125 7.59 -0.20625 11.5 -0.3125 C12.68013672 -0.35802002 13.86027344 -0.40354004 15.07617188 -0.45043945 C21.96121731 -0.54051221 26.7824145 0.29672902 32 5 C35.16866055 9.4559289 35.7868002 13.68378243 35 19 C33.35177385 23.285388 31.26169971 25.84612507 28 29 C28.5053125 29.91523437 29.010625 30.83046875 29.53125 31.7734375 C30.18771927 32.97383845 30.8439573 34.17436587 31.5 35.375 C32.00080078 36.27992187 32.00080078 36.27992187 32.51171875 37.203125 C35 41.7734375 35 41.7734375 35 44 C31.04 44 27.08 44 23 44 C22.63648438 43.07316406 22.27296875 42.14632812 21.8984375 41.19140625 C21.39570313 39.99386719 20.89296875 38.79632813 20.375 37.5625 C19.64410156 35.77005859 19.64410156 35.77005859 18.8984375 33.94140625 C18.27195312 32.97074219 17.64546875 32.00007813 17 31 C15.02 30.67 13.04 30.34 11 30 C11 34.62 11 39.24 11 44 C7.37 44 3.74 44 0 44 C0 29.48 0 14.96 0 0 Z " fill="#071171" transform="translate(408,48)"/>
<path d="M0 0 C3.63 0 7.26 0 11 0 C14.68879761 7.88337186 17.99483103 15.86311548 21.0769043 24.00024414 C21.82183163 25.96207566 22.57770256 27.9194749 23.33398438 29.87695312 C23.8131651 31.13516357 24.29170507 32.39361827 24.76953125 33.65234375 C25.19854736 34.77632568 25.62756348 35.90030762 26.06958008 37.05834961 C27 40 27 40 27 44 C23.37 44 19.74 44 16 44 C15.01 40.535 15.01 40.535 14 37 C8.39 37 2.78 37 -3 37 C-3.66 39.31 -4.32 41.62 -5 44 C-8.63 44 -12.26 44 -16 44 C-15.36644053 38.63911221 -13.62404129 34.06472502 -11.62109375 29.1015625 C-11.28956802 28.26660248 -10.9580423 27.43164246 -10.61647034 26.57138062 C-9.56237882 23.92032982 -8.5000762 21.27265986 -7.4375 18.625 C-6.71885545 16.82183193 -6.00075054 15.01844869 -5.28320312 13.21484375 C-3.52837425 8.80737982 -1.76617675 4.40292816 0 0 Z " fill="#071271" transform="translate(369,48)"/>
<path d="M0 0 C10.89 0 21.78 0 33 0 C33 2.97 33 5.94 33 9 C32 10 32 10 29.95874023 10.11352539 C29.08419189 10.10828857 28.20964355 10.10305176 27.30859375 10.09765625 C26.36435547 10.09443359 25.42011719 10.09121094 24.44726562 10.08789062 C23.45404297 10.07951172 22.46082031 10.07113281 21.4375 10.0625 C20.44041016 10.05798828 19.44332031 10.05347656 18.41601562 10.04882812 C15.94395151 10.03700007 13.47200482 10.02051849 11 10 C11 12.31 11 14.62 11 17 C15.62 17 20.24 17 25 17 C25.09765625 23.93359375 25.09765625 23.93359375 25 26 C24 27 24 27 21.05859375 27.09765625 C19.86363281 27.08605469 18.66867187 27.07445313 17.4375 27.0625 C15.64119141 27.04896484 15.64119141 27.04896484 13.80859375 27.03515625 C12.88175781 27.02355469 11.95492188 27.01195313 11 27 C11 29.31 11 31.62 11 34 C18.26 34 25.52 34 33 34 C33 36.97 33 39.94 33 43 C32 44 32 44 28.94897461 44.11352539 C27.60008731 44.11327443 26.25119355 44.10771815 24.90234375 44.09765625 C23.60546631 44.09515869 22.30858887 44.09266113 20.97241211 44.09008789 C19.31089111 44.08098389 17.64937012 44.07187988 15.9375 44.0625 C10.678125 44.041875 5.41875 44.02125 0 44 C0 29.48 0 14.96 0 0 Z " fill="#0B1673" transform="translate(455,48)"/>
<path d="M0 0 C2.52594878 1.4177906 4.539325 2.98930949 6.4375 5.1875 C6.4375 5.8475 6.4375 6.5075 6.4375 7.1875 C4.47822937 8.9018618 2.47869788 10.57155168 0.4375 12.1875 C-4.3125 10.3125 -4.3125 10.3125 -6.5625 9.1875 C-12.42650736 8.79117288 -12.42650736 8.79117288 -17.5625 11.1875 C-20.50256599 14.75758013 -21.03306316 17.7756678 -20.85546875 22.2578125 C-20.42295852 25.10661321 -19.33970667 26.94953604 -17.5625 29.1875 C-14.440498 31.26883467 -13.62983011 31.4612822 -10.0625 31.4375 C-8.90234375 31.44523437 -8.90234375 31.44523437 -7.71875 31.453125 C-5.26736156 31.31488062 -5.26736156 31.31488062 -2.5625 29.1875 C0.92901548 29.53665155 3.5246055 31.32648407 6.4375 33.1875 C6.21484375 35.01953125 6.21484375 35.01953125 5.4375 37.1875 C3.44140625 38.63671875 3.44140625 38.63671875 1 39.875 C0.19691406 40.29136719 -0.60617187 40.70773438 -1.43359375 41.13671875 C-2.48740234 41.65685547 -2.48740234 41.65685547 -3.5625 42.1875 C-4.5525 42.6825 -4.5525 42.6825 -5.5625 43.1875 C-12.37820388 43.96028427 -17.98374259 43.33402983 -23.5625 39.1875 C-29.22348075 33.83915724 -32.5629015 29.26148892 -32.875 21.375 C-32.6884066 13.52641504 -30.23169891 7.73071672 -24.5625 2.1875 C-17.47797524 -3.11765575 -7.97466447 -3.8037534 0 0 Z " fill="#071271" transform="translate(337.5625,48.8125)"/>
<path d="M0 0 C1.79133978 -0.05391993 3.58313899 -0.09275571 5.375 -0.125 C6.37273437 -0.14820313 7.37046875 -0.17140625 8.3984375 -0.1953125 C11 0 11 0 13 2 C13.125 5.625 13.125 5.625 13 9 C10.35541621 10.32229189 8.32238699 10.09677194 5.375 10.0625 C4.37210938 10.05347656 3.36921875 10.04445313 2.3359375 10.03515625 C1.56507813 10.02355469 0.79421875 10.01195313 0 10 C0 6.7 0 3.4 0 0 Z " fill="#FCFCFD" transform="translate(188,58)"/>
<path d="M0 0 C9.625 -0.25 9.625 -0.25 13 2 C13.3125 5 13.3125 5 13 8 C11 10 11 10 8.3984375 10.1953125 C7.40070313 10.17210938 6.40296875 10.14890625 5.375 10.125 C3.87066406 10.09792969 3.87066406 10.09792969 2.3359375 10.0703125 C1.56507813 10.04710938 0.79421875 10.02390625 0 10 C0 6.7 0 3.4 0 0 Z " fill="#FDFDFE" transform="translate(419,58)"/>
<path d="M0 0 C2.03529587 2.03529587 2.6384272 3.23417382 3.625 5.875 C3.88539063 6.55304688 4.14578125 7.23109375 4.4140625 7.9296875 C5 10 5 10 5 14 C2.03 14 -0.94 14 -4 14 C-2 4.42857143 -2 4.42857143 0 0 Z " fill="#F1F2F7" transform="translate(374,62)"/>
</svg>
