<?xml version="1.0" encoding="UTF-8"?>
<svg version="1.1" xmlns="http://www.w3.org/2000/svg" width="24" height="24">
<path d="M0 0 C6.41069287 5.27101414 12.18590512 11.09128152 18 17 C17.01 17.99 16.02 18.98 15 20 C14.67 19.67 14.34 19.34 14 19 C12.25187827 18.86801094 10.50118145 18.76944031 8.75 18.6875 C3.99591019 18.28670125 1.23461916 17.75633192 -2 14 C-3.5 11.5625 -3.5 11.5625 -4 9 C-2.625 6.375 -2.625 6.375 -1 4 C-1 3.01 -1 2.02 -1 1 C-0.67 0.67 -0.34 0.34 0 0 Z M2 7 C1.34 8.32 0.68 9.64 0 11 C1.62280307 13.12498069 1.62280307 13.12498069 4 15 C7.167832 15.33448259 7.167832 15.33448259 10 15 C10 14.67 10 14.34 10 14 C8.35 13.67 6.7 13.34 5 13 C4.34 11.02 3.68 9.04 3 7 C2.67 7 2.34 7 2 7 Z " fill="#000000" transform="translate(4,2)"/>
<path d="M0 0 C7.91884984 -0.62108626 7.91884984 -0.62108626 11.9375 1.6875 C14.05771158 4.06470692 15.07429631 5.97042428 16 9 C14.68 10.32 13.36 11.64 12 13 C10 10 10 10 10 6 C8.01779122 3.69132851 8.01779122 3.69132851 4.4375 3 C3.303125 2.67 2.16875 2.34 1 2 C0.67 1.34 0.34 0.68 0 0 Z " fill="#000000" transform="translate(8,4)"/>
<path d="M0 0 C1.32 0.33 2.64 0.66 4 1 C3.67 1.99 3.34 2.98 3 4 C2.01 2.68 1.02 1.36 0 0 Z " fill="#000000" transform="translate(12,8)"/>
</svg>
