<svg xmlns="http://www.w3.org/2000/svg" width="512" height="512" id="report">
  <g fill="none" fill-rule="evenodd">
    <path fill="#C4C3C3" d="M442.174 501.286H70.904c-13.994 0-25.341-11.37-25.341-25.394V36.971c0-14.023 11.347-25.394 25.342-25.394h371.269c13.994 0 25.342 11.37 25.342 25.394v438.921c0 14.023-11.348 25.394-25.342 25.394Z"></path>
    <path fill="#2E2E30" d="M70.906 22.16c-8.151 0-14.783 6.645-14.783 14.813v438.922c0 8.168 6.632 14.813 14.783 14.813h371.269c8.152 0 14.783-6.645 14.783-14.813V36.973c0-8.168-6.631-14.813-14.783-14.813H70.906ZM442.175 511.87H70.906c-19.795 0-35.9-16.14-35.9-35.974V36.973C35.005 17.138 51.11 1 70.905 1h371.269c19.795 0 35.901 16.139 35.901 35.974v438.922c0 19.835-16.106 35.974-35.901 35.974Z"></path>
    <path fill="#FEFEFE" d="M98.328 458.484h316.431V11.578H98.328z"></path>
    <path fill="#2E2E30" d="M108.88 447.904h295.313V22.159H108.88v425.745Zm305.872 21.161H98.321c-5.829 0-10.56-4.733-10.56-10.58V11.577c0-5.84 4.731-10.58 10.56-10.58h316.431c5.829 0 10.56 4.74 10.56 10.58v446.906c0 5.848-4.731 10.581-10.56 10.581Z"></path>
    <path fill="#FEFEFE" d="M161.176 67.973h190.721V11.578H161.176z"></path>
    <path fill="#2E2E30" d="M171.743 57.392h169.601V22.16H171.743v35.233zm180.16 21.162h-190.72c-5.828 0-10.559-4.734-10.559-10.581V11.578c0-5.84 4.73-10.58 10.56-10.58h190.72c5.828 0 10.559 4.74 10.559 10.58v56.395c0 5.847-4.73 10.58-10.56 10.58zm3.256 104.482H229.167c-5.836 0-10.56-4.733-10.56-10.58 0-5.848 4.724-10.581 10.56-10.581h125.992c5.83 0 10.56 4.733 10.56 10.58 0 5.848-4.73 10.581-10.56 10.581m-188.209 6.486a10.52 10.52 0 0 1-6.913-2.581l-16.317-14.157c-4.407-3.824-4.879-10.51-1.063-14.926 3.808-4.423 10.475-4.91 14.895-1.072l8.617 7.477 19.408-20.851c3.977-4.282 10.65-4.5 14.93-.522 4.26 3.985 4.491 10.68.514 14.954l-26.349 28.314a10.537 10.537 0 0 1-7.722 3.364M355.16 262H229.166c-5.836 0-10.56-4.733-10.56-10.58 0-5.848 4.724-10.581 10.56-10.581h125.992c5.83 0 10.56 4.733 10.56 10.58 0 5.848-4.73 10.581-10.56 10.581m-188.209 6.485c-2.457 0-4.913-.853-6.913-2.581l-16.317-14.157c-4.407-3.823-4.879-10.51-1.063-14.926 3.808-4.416 10.475-4.902 14.895-1.072l8.617 7.477 19.408-20.851c3.977-4.282 10.664-4.5 14.93-.522 4.26 3.992 4.491 10.68.514 14.954l-26.349 28.314a10.537 10.537 0 0 1-7.722 3.364m188.21 70.803H229.166c-5.836 0-10.56-4.733-10.56-10.58 0-5.848 4.724-10.58 10.56-10.58h125.992c5.83 0 10.56 4.732 10.56 10.58 0 5.847-4.73 10.58-10.56 10.58m-188.209 6.486c-2.457 0-4.913-.854-6.913-2.582l-16.317-14.157c-4.407-3.823-4.879-10.51-1.063-14.926 3.808-4.415 10.475-4.902 14.895-1.072l8.617 7.477 19.408-20.85c3.977-4.283 10.664-4.501 14.93-.523 4.26 3.993 4.491 10.68.514 14.954l-26.349 28.314a10.537 10.537 0 0 1-7.722 3.365"></path>
    <path fill="#040605" d="M442.174 11.578h-23.435C414.825 181.645 365.373 484.4 65.05 500.539c1.886.444 3.829.748 5.856.748h371.269c13.994 0 25.342-11.371 25.342-25.394V36.972c0-14.023-11.348-25.394-25.342-25.394" opacity=".15"></path>
  </g>
</svg>
