<?xml version="1.0" encoding="UTF-8"?>
<svg version="1.1" xmlns="http://www.w3.org/2000/svg" width="24" height="24">
<path d="M0 0 C3.63587371 1.92923911 4.66907698 3.08509518 6.0625 6.9375 C5.98173455 10.89500721 4.7540538 12.2459462 2 15 C-1.70788386 16.85394193 -5.95291317 16.45179743 -10 16 C-13.63587371 14.07076089 -14.66907698 12.91490482 -16.0625 9.0625 C-15.98173455 5.10499279 -14.7540538 3.7540538 -12 1 C-8.29211614 -0.85394193 -4.04708683 -0.45179743 0 0 Z M-13 7 C-11.84826645 9.46800047 -10.95216435 11.04783565 -9 13 C-3.27385622 13.68590324 -3.27385622 13.68590324 1.5 11 C1.995 10.34 2.49 9.68 3 9 C1.84826645 6.53199953 0.95216435 4.95216435 -1 3 C-6.59971929 2.45809168 -9.41606395 2.2214186 -13 7 Z " fill="#000000" transform="translate(17,4)"/>
<path d="M0 0 C3 0.125 3 0.125 4 1.125 C4.125 4.125 4.125 4.125 4 7.125 C3 8.125 3 8.125 0 8.25 C-3 8.125 -3 8.125 -4 7.125 C-4.125 4.125 -4.125 4.125 -4 1.125 C-3 0.125 -3 0.125 0 0 Z M-1 3.125 C-1 3.785 -1 4.445 -1 5.125 C-0.34 5.125 0.32 5.125 1 5.125 C1 4.465 1 3.805 1 3.125 C0.34 3.125 -0.32 3.125 -1 3.125 Z " fill="#000000" transform="translate(12,7.875)"/>
</svg>
